<svg width="14" height="14" viewBox="0 0 14 14" fill="none" xmlns="http://www.w3.org/2000/svg">
<path d="M11.2061 0.9375C11.3299 0.937539 11.4544 0.963166 11.5791 1.01465C11.7033 1.06597 11.8184 1.13556 11.9238 1.22461V1.22559L12.7891 2.07812C12.8892 2.18359 12.9621 2.2988 13.0078 2.42383C13.0539 2.54999 13.0771 2.67682 13.0771 2.80371C13.0771 2.9303 13.0515 3.05917 13 3.18945C12.9484 3.31978 12.8771 3.43081 12.7881 3.52246L3.55371 12.7412C3.45121 12.841 3.32943 12.9213 3.18848 12.9824C3.04794 13.0433 2.90326 13.0742 2.75488 13.0742H1.46582C1.30924 13.0741 1.18058 13.0223 1.07812 12.9199V12.9189C0.975505 12.8164 0.923895 12.6881 0.923828 12.5312V11.251C0.923828 11.1026 0.953833 10.9573 1.01465 10.8154C1.07571 10.673 1.15626 10.5518 1.25586 10.4521L10.4912 1.22949V1.22852C10.5801 1.13703 10.6878 1.06608 10.8135 1.01465C10.9394 0.963203 11.0706 0.9375 11.2061 0.9375ZM9.68359 3.56543L2.0127 11.2158L2.00488 11.2236V11.9883H2.77734L2.78516 11.9814L10.4482 4.33398L10.4658 4.31641L10.4482 4.29883L10.0859 3.92871V3.92773L9.71875 3.56543L9.70117 3.54785L9.68359 3.56543Z" fill="#0B0A09" stroke="#0B0A09" stroke-width="0.05"/>
</svg>
